<svg viewBox="0 0 48 48" fill="none" stroke="currentColor" stroke-width="2" stroke-linecap="round" stroke-linejoin="round" xmlns="http://www.w3.org/2000/svg" role="img" aria-hidden="true">
  <!-- lid / screw band -->
  <rect x="17" y="7" width="14" height="5" rx="1" />
  <!-- jar glass body -->
  <path d="M18 12 C 16.5 13.5 16 15 16 17 L 16 37 C 16 40 18 42 21 42 L 27 42 C 30 42 32 40 32 37 L 32 17 C 32 15 31.5 13.5 30 12" />
  <!-- living ferment surface -->
  <path d="M16.5 27 C 20 29 28 29 31.5 27" />
  <!-- rising bubbles -->
  <circle cx="22" cy="34" r="1.4" />
  <circle cx="26.5" cy="31" r="1" />
  <circle cx="24" cy="38" r="1.1" />
  <!-- left laurel leaf -->
  <path d="M15 28 C 10 26 6 29 4.5 34 C 9.5 34 13.5 32 15 28 Z" />
  <path d="M15 28 L 6.5 32.5" stroke-width="1.3" />
  <!-- right laurel leaf -->
  <path d="M33 28 C 38 26 42 29 43.5 34 C 38.5 34 34.5 32 33 28 Z" />
  <path d="M33 28 L 41.5 32.5" stroke-width="1.3" />
</svg>
