<svg viewBox="0 0 48 48" fill="none" stroke="currentColor" stroke-width="2" stroke-linecap="round" stroke-linejoin="round" xmlns="http://www.w3.org/2000/svg" role="img" aria-hidden="true">
  <!-- open swirl ring -->
  <path d="M37 15 A 15 15 0 1 1 32 12" />
  <!-- swirl tail (overlapping brushstroke) -->
  <path d="M32 12 C 34 12.5 35.5 13.5 37 15" stroke-width="1.3" />
  <!-- leaf sprig stem -->
  <path d="M17 33 C 21 28 25 24 30 21" />
  <!-- lower leaf -->
  <path d="M22 28 C 18 27 16 25 16.5 22 C 20 23 22 25 22 28 Z" />
  <!-- upper leaf -->
  <path d="M27 23 C 27 19 29 17 32 16.5 C 31.5 20 30 22 27 23 Z" />
  <!-- droplet -->
  <path d="M35 27 C 37 30 37 32 35 32.5 C 33 32 33 30 35 27 Z" stroke-width="1.4" />
</svg>
